<svg id="Layer_1" data-name="Layer 1" xmlns="http://www.w3.org/2000/svg" width="1115.6mm" height="287.77mm" viewBox="0 0 3162.33 815.73"><g id="SvgjsG2864"><path d="M328.73,424.73H327c-13.8.55-33.71.46-72.19.83a4.61,4.61,0,0,0-.06,9.21h.14c38.43-.36,58.28-.26,72.46-.82h0c6-.22,13.52,2.7,21.85,7.82s17.35,12.26,26.59,19.61c18.47,14.7,37.46,30.64,56.81,31.91h0c19.05,1.3,44.67,2.4,75.52,3.32,6.09.19,15.59,3.79,23.67,10.22s14.78,15.47,16.86,26.1a4.6,4.6,0,0,0,9.07-1.58,1.29,1.29,0,0,0,0-.19c-2.6-13.3-10.76-24-20.17-31.53s-20-11.94-29.11-12.21c-30.79-.92-56.34-2-75.19-3.31h0c-14.33-.94-33.21-15.22-51.68-29.93-9.24-7.35-18.46-14.69-27.5-20.25-8.48-5.22-16.88-9-25.33-9.19Z" style="fill:#fff;fill-rule:evenodd"/><path d="M817.56,483.25c-2.43,0-4.9.16-7.4.42-20,2.13-42.65,11.33-65.71,22.8S698,531.75,677,543.33s-39.61,20.91-51.88,23.49c-94.07,19.75-141.32,9.65-203.25,10.95a4.6,4.6,0,0,0,.19,9.2c60.83-1.28,109.65,8.86,205-11.14,14.65-3.08,33.34-12.76,54.44-24.44S725.9,526,748.55,514.71s44.68-20,62.58-21.89,30.93,2.18,39.35,17h0a27.5,27.5,0,0,1,3,20.19c-1.5,7.17-5.54,15-11.94,23.2-12.81,16.4-34.91,34.07-62.46,51.53C724,639.67,647.18,674,578.62,700.18c-41.06,15.69-90.5,4.23-145.56-10.75S317.58,656.2,254.56,660.6a4.6,4.6,0,1,0,.46,9.19h.17c60.84-4.25,120.23,13.51,175.46,28.53S537.2,725.85,581.9,708.78c68.92-26.34,146.08-60.73,202.15-96.25,28-17.77,50.82-35.75,64.79-53.65,7-8.94,11.8-17.92,13.7-27a37.45,37.45,0,0,0-4.06-26.61h0c-8.93-15.72-23.92-22.1-40.92-22Z" style="fill:#fff;fill-rule:evenodd"/><path d="M85.84,354a4.6,4.6,0,1,0-.13,9.2h76.87A30.44,30.44,0,0,1,193,393.54V695a30.43,30.43,0,0,1-30.37,30.36H85.84a4.61,4.61,0,0,0-.17,9.21h76.91A39.72,39.72,0,0,0,202.15,695V393.54A39.72,39.72,0,0,0,162.58,354Z" style="fill:#fff;fill-rule:evenodd"/><path d="M129.36,649.08a19.51,19.51,0,1,0,19.51,19.51A19.6,19.6,0,0,0,129.36,649.08Zm0,9.2a10.31,10.31,0,1,1-10.3,10.31A10.23,10.23,0,0,1,129.36,658.28Z" style="fill:#fff;fill-rule:evenodd"/><path d="M412.93,81.16c-23.12-.09-45.29,5.65-63.88,16.52-31.31,18.31-52.3,51.6-49.72,94.88h0c3.51,57.83,36.63,97.94,78.38,129.52,41.55,31.42,91.85,55,131.76,80.48a4.75,4.75,0,0,0,6.15,0c39.91-25.5,90.19-49,131.74-80.46,41.75-31.58,74.88-71.69,78.38-129.52h0c3.25-54-30.29-92.17-74.7-105.74s-99.87-3.24-141.72,37.66a4.6,4.6,0,0,0,6.27,6.74,1.21,1.21,0,0,0,.16-.16c39.5-38.6,91.48-48,132.6-35.44S719.56,142,716.55,192h0c-3.31,54.62-34.09,92-74.74,122.74-39.84,30.13-88.93,53.34-129.27,78.88-40.35-25.54-89.44-48.75-129.28-78.88C342.61,284,311.83,246.63,308.52,192h0c-2.39-40.09,16.47-69.6,45.18-86.39s67.44-20.46,104.08-7.19a4.6,4.6,0,1,0,3.34-8.57l-.2-.08a143,143,0,0,0-48-8.62Z" style="fill:#fff;fill-rule:evenodd"/><path d="M632.18,136.42a4.6,4.6,0,0,0-1.29,9c20.87,7.44,35.58,25,34,51a4.6,4.6,0,1,0,9.18.65V197c1.87-29.89-16-51.73-40-60.3a4.59,4.59,0,0,0-1.8-.28Z" style="fill:#fff;fill-rule:evenodd"/></g><g id="SvgjsG2865"><path d="M1022.66,529.57V287.42h87.65c77.25,0,115.45,48.6,115.45,121s-38.2,121.15-115.45,121.15Zm50.28-44.41h34.85c44.58,0,65-27.81,65-76.75s-20.44-76.74-65-76.74h-34.85v153.5Zm315.41,47.76c-71.22,0-123.84-48.59-123.84-124.51,0-76.08,52.62-124.34,123.84-124.34,71.05,0,123.67,48.26,123.67,124.34C1512,484.32,1459.4,532.92,1388.35,532.92Zm0-46.08c41.73,0,73.73-29.33,73.73-78.43,0-48.93-32-78.09-73.73-78.09s-73.73,29.16-73.73,78.09C1314.62,457.51,1346.62,486.84,1388.35,486.84Zm343.58-199.42H1782V529.57h-58.15L1616.64,356.46V529.57h-50.11V287.42H1624l107.92,172.11V287.42ZM2015,529.57l-17.6-49.94H1895.69l-17.6,49.94h-51.44l89.15-242.15h61.5l89.16,242.15H2015Zm-104.56-92h72.22l-36-102.73Zm341-150.15v44.24H2194V529.57h-49.77V331.66h-57.82V287.42Zm186.72,44.25h-89.82v55H2428v43.74h-79.6v54.8h89.82v44.41H2297.79V287.43h140.42v44.24ZM2522,532.92a27.72,27.72,0,0,1-27.48-27.48c0-15.08,12.57-27.82,27.48-27.82a28.08,28.08,0,0,1,27.82,27.82A27.79,27.79,0,0,1,2522,532.92Zm184.71,0c-53.12,0-94.68-27.14-94.68-88.14V287.43h50.28V437.91c0,36.87,19.6,50.61,44.4,50.61,25,0,44.75-13.91,44.75-50.61V287.43h50.27V444.78c0,61-41.73,88.14-95,88.14Zm323-3.35-17.6-49.94H2910.4l-17.6,49.94h-51.44l89.15-242.15H2992l89.15,242.15h-51.45Zm-104.56-92h72.22l-36-102.73Z" style="fill:#fff"/></g></svg>